<svg id="visual" viewBox="0 0 900 600" width="900" height="600" xmlns="http://www.w3.org/2000/svg" xmlns:xlink="http://www.w3.org/1999/xlink" version="1.1"><rect x="0" y="0" width="900" height="600" fill="#006491"></rect><defs><linearGradient id="grad1_0" x1="33.3%" y1="0%" x2="100%" y2="100%"><stop offset="20%" stop-color="#006491" stop-opacity="1"></stop><stop offset="80%" stop-color="#006491" stop-opacity="1"></stop></linearGradient></defs><defs><linearGradient id="grad2_0" x1="0%" y1="0%" x2="66.7%" y2="100%"><stop offset="20%" stop-color="#006491" stop-opacity="1"></stop><stop offset="80%" stop-color="#006491" stop-opacity="1"></stop></linearGradient></defs><g transform="translate(900, 0)"><path d="M0 378.6C-38 384.8 -76.1 391 -98 365.7C-119.9 340.3 -125.6 283.4 -153 265C-180.4 246.6 -229.3 266.9 -257.4 257.4C-285.5 247.9 -292.6 208.7 -308.3 178C-324 147.3 -348.1 125.1 -361.3 96.8C-374.4 68.5 -376.5 34.3 -378.6 0L0 0Z" fill="#e31837"></path></g><g transform="translate(0, 600)"><path d="M0 -378.6C35.1 -381 70.2 -383.3 98 -365.7C125.8 -348 146.3 -310.4 162.5 -281.5C178.7 -252.5 190.6 -232.3 219.9 -219.9C249.3 -207.6 296.1 -203.1 314.4 -181.5C332.7 -159.9 322.5 -121.1 328.4 -88C334.4 -54.9 356.5 -27.4 378.6 0L0 0Z" fill="#e31837"></path></g></svg>