<svg id="visual" viewBox="0 0 900 600" width="900" height="600" xmlns="http://www.w3.org/2000/svg" xmlns:xlink="http://www.w3.org/1999/xlink" version="1.1"><path d="M0 121L13.7 120C27.3 119 54.7 117 82 112C109.3 107 136.7 99 163.8 87C191 75 218 59 245.2 64C272.3 69 299.7 95 327 96C354.3 97 381.7 73 409 66C436.3 59 463.7 69 491 80C518.3 91 545.7 103 573 103C600.3 103 627.7 91 654.8 79C682 67 709 55 736.2 58C763.3 61 790.7 79 818 89C845.3 99 872.7 101 886.3 102L900 103L900 0L886.3 0C872.7 0 845.3 0 818 0C790.7 0 763.3 0 736.2 0C709 0 682 0 654.8 0C627.7 0 600.3 0 573 0C545.7 0 518.3 0 491 0C463.7 0 436.3 0 409 0C381.7 0 354.3 0 327 0C299.7 0 272.3 0 245.2 0C218 0 191 0 163.8 0C136.7 0 109.3 0 82 0C54.7 0 27.3 0 13.7 0L0 0Z" fill="#e31837"></path><path d="M0 313L13.7 312C27.3 311 54.7 309 82 292C109.3 275 136.7 243 163.8 226C191 209 218 207 245.2 220C272.3 233 299.7 261 327 257C354.3 253 381.7 217 409 198C436.3 179 463.7 177 491 191C518.3 205 545.7 235 573 251C600.3 267 627.7 269 654.8 266C682 263 709 255 736.2 247C763.3 239 790.7 231 818 240C845.3 249 872.7 275 886.3 288L900 301L900 101L886.3 100C872.7 99 845.3 97 818 87C790.7 77 763.3 59 736.2 56C709 53 682 65 654.8 77C627.7 89 600.3 101 573 101C545.7 101 518.3 89 491 78C463.7 67 436.3 57 409 64C381.7 71 354.3 95 327 94C299.7 93 272.3 67 245.2 62C218 57 191 73 163.8 85C136.7 97 109.3 105 82 110C54.7 115 27.3 117 13.7 118L0 119Z" fill="#ce2179"></path><path d="M0 403L13.7 404C27.3 405 54.7 407 82 402C109.3 397 136.7 385 163.8 394C191 403 218 433 245.2 434C272.3 435 299.7 407 327 403C354.3 399 381.7 419 409 428C436.3 437 463.7 435 491 429C518.3 423 545.7 413 573 403C600.3 393 627.7 383 654.8 393C682 403 709 433 736.2 444C763.3 455 790.7 447 818 441C845.3 435 872.7 431 886.3 429L900 427L900 299L886.3 286C872.7 273 845.3 247 818 238C790.7 229 763.3 237 736.2 245C709 253 682 261 654.8 264C627.7 267 600.3 265 573 249C545.7 233 518.3 203 491 189C463.7 175 436.3 177 409 196C381.7 215 354.3 251 327 255C299.7 259 272.3 231 245.2 218C218 205 191 207 163.8 224C136.7 241 109.3 273 82 290C54.7 307 27.3 309 13.7 310L0 311Z" fill="#964aa3"></path><path d="M0 517L13.7 518C27.3 519 54.7 521 82 518C109.3 515 136.7 507 163.8 506C191 505 218 511 245.2 513C272.3 515 299.7 513 327 515C354.3 517 381.7 523 409 528C436.3 533 463.7 537 491 541C518.3 545 545.7 549 573 542C600.3 535 627.7 517 654.8 515C682 513 709 527 736.2 533C763.3 539 790.7 537 818 536C845.3 535 872.7 535 886.3 535L900 535L900 425L886.3 427C872.7 429 845.3 433 818 439C790.7 445 763.3 453 736.2 442C709 431 682 401 654.8 391C627.7 381 600.3 391 573 401C545.7 411 518.3 421 491 427C463.7 433 436.3 435 409 426C381.7 417 354.3 397 327 401C299.7 405 272.3 433 245.2 432C218 431 191 401 163.8 392C136.7 383 109.3 395 82 400C54.7 405 27.3 403 13.7 402L0 401Z" fill="#4c5fa9"></path><path d="M0 601L13.7 601C27.3 601 54.7 601 82 601C109.3 601 136.7 601 163.8 601C191 601 218 601 245.2 601C272.3 601 299.7 601 327 601C354.3 601 381.7 601 409 601C436.3 601 463.7 601 491 601C518.3 601 545.7 601 573 601C600.3 601 627.7 601 654.8 601C682 601 709 601 736.2 601C763.3 601 790.7 601 818 601C845.3 601 872.7 601 886.3 601L900 601L900 533L886.3 533C872.7 533 845.3 533 818 534C790.7 535 763.3 537 736.2 531C709 525 682 511 654.8 513C627.7 515 600.3 533 573 540C545.7 547 518.3 543 491 539C463.7 535 436.3 531 409 526C381.7 521 354.3 515 327 513C299.7 511 272.3 513 245.2 511C218 509 191 503 163.8 504C136.7 505 109.3 513 82 516C54.7 519 27.3 517 13.7 516L0 515Z" fill="#006491"></path></svg>