<svg id="visual" viewBox="0 0 900 900" width="900" height="900" xmlns="http://www.w3.org/2000/svg" xmlns:xlink="http://www.w3.org/1999/xlink" version="1.1"><rect x="0" y="0" width="900" height="900" fill="#e31837"></rect><g fill="#d49b17"><circle r="92" cx="609" cy="552"></circle><circle r="23" cx="309" cy="339"></circle><circle r="48" cx="383" cy="603"></circle><circle r="50" cx="693" cy="807"></circle><circle r="43" cx="506" cy="205"></circle><circle r="55" cx="73" cy="538"></circle><circle r="35" cx="5" cy="212"></circle><circle r="86" cx="692" cy="61"></circle><circle r="49" cx="241" cy="58"></circle><circle r="22" cx="663" cy="320"></circle><circle r="32" cx="844" cy="428"></circle><circle r="86" cx="349" cy="856"></circle><circle r="31" cx="468" cy="6"></circle><circle r="61" cx="819" cy="211"></circle><circle r="80" cx="895" cy="867"></circle><circle r="82" cx="18" cy="845"></circle><circle r="25" cx="200" cy="702"></circle><circle r="27" cx="43" cy="15"></circle><circle r="33" cx="787" cy="610"></circle><circle r="28" cx="517" cy="740"></circle><circle r="88" cx="896" cy="7"></circle></g></svg>